<svg width="22" height="24" viewBox="0 0 22 24" fill="none" xmlns="http://www.w3.org/2000/svg">
<path d="M0.381352 23.3519C0.52235 23.4976 0.704296 23.597 0.903065 23.6369C1.10183 23.6768 1.30804 23.6553 1.49434 23.5753L10.9993 19.5024L20.5049 23.576C20.6887 23.6549 20.8919 23.6768 21.0883 23.639C21.2847 23.6012 21.4652 23.5054 21.6066 23.3639L21.6179 23.3526C21.7588 23.2071 21.8523 23.0223 21.8859 22.8225C21.9195 22.6228 21.8916 22.4175 21.806 22.234L11.9065 1.02076C11.8262 0.847895 11.6983 0.701565 11.5376 0.598998C11.377 0.496431 11.1904 0.4419 10.9998 0.441825C10.8093 0.441751 10.6226 0.496136 10.4619 0.598578C10.3012 0.70102 10.1731 0.84725 10.0928 1.02005L0.193261 22.2333C0.107699 22.417 0.079938 22.6224 0.11365 22.8223C0.147362 23.0222 0.240959 23.2071 0.382059 23.3526L0.381352 23.3519Z" fill="white"/>
</svg>
