<svg width="1124" height="830" viewBox="0 0 1124 830" fill="none" xmlns="http://www.w3.org/2000/svg">
<g filter="url(#filter0_dii_23_935)">
<path d="M919.476 616.557C910.69 693.131 886.86 791.361 651.596 789.816C416.332 788.27 449.78 656.072 458.566 579.498C467.351 502.924 563.461 446.673 687.936 459.464C812.411 472.255 928.261 539.983 919.476 616.557Z" fill="url(#paint0_linear_23_935)"/>
<path d="M851.766 373.031C842.98 449.605 819.151 547.835 583.886 546.29C348.622 544.744 382.07 412.546 390.856 335.972C399.642 259.398 495.752 203.147 620.226 215.938C744.701 228.729 860.552 296.457 851.766 373.031Z" fill="url(#paint1_linear_23_935)"/>
<ellipse rx="260.065" ry="202.293" transform="matrix(0.985355 0.170517 -0.189714 0.981839 685.012 242.965)" fill="url(#paint2_radial_23_935)"/>
<path d="M507.94 168.06C529.769 219.109 484.027 289.862 405.997 319.744C327.967 349.626 236.666 340.01 214.838 288.961C193.01 237.912 238.751 167.16 316.782 137.278C394.812 107.395 486.112 117.011 507.94 168.06Z" fill="url(#paint3_linear_23_935)"/>
<path d="M498.928 682.56C407.68 760.044 259.005 744.067 166.854 646.875C74.7025 549.683 73.9702 408.081 165.218 330.597C256.466 253.114 405.141 269.091 497.292 366.283C589.443 463.475 590.176 605.077 498.928 682.56Z" fill="url(#paint4_linear_23_935)"/>
<path d="M860.459 692.557C764.299 677.797 735.797 578.457 756.261 459.061C799.647 347.289 859.814 279.583 955.975 294.343C1052.13 309.104 1109.51 403.341 1089.05 522.737C1068.59 642.132 956.62 707.318 860.459 692.557Z" fill="url(#paint5_radial_23_935)"/>
</g>
<defs>
<filter id="filter0_dii_23_935" x="57.2578" y="37.4102" width="1037.92" height="792.422" filterUnits="userSpaceOnUse" color-interpolation-filters="sRGB">
<feFlood flood-opacity="0" result="BackgroundImageFix"/>
<feColorMatrix in="SourceAlpha" type="matrix" values="0 0 0 0 0 0 0 0 0 0 0 0 0 0 0 0 0 0 127 0" result="hardAlpha"/>
<feOffset dx="-20" dy="20"/>
<feGaussianBlur stdDeviation="10"/>
<feComposite in2="hardAlpha" operator="out"/>
<feColorMatrix type="matrix" values="0 0 0 0 0 0 0 0 0 0 0 0 0 0 0 0 0 0 0.25 0"/>
<feBlend mode="normal" in2="BackgroundImageFix" result="effect1_dropShadow_23_935"/>
<feBlend mode="normal" in="SourceGraphic" in2="effect1_dropShadow_23_935" result="shape"/>
<feColorMatrix in="SourceAlpha" type="matrix" values="0 0 0 0 0 0 0 0 0 0 0 0 0 0 0 0 0 0 127 0" result="hardAlpha"/>
<feOffset dx="2" dy="-2"/>
<feGaussianBlur stdDeviation="1"/>
<feComposite in2="hardAlpha" operator="arithmetic" k2="-1" k3="1"/>
<feColorMatrix type="matrix" values="0 0 0 0 0 0 0 0 0 0 0 0 0 0 0 0 0 0 0.25 0"/>
<feBlend mode="normal" in2="shape" result="effect2_innerShadow_23_935"/>
<feColorMatrix in="SourceAlpha" type="matrix" values="0 0 0 0 0 0 0 0 0 0 0 0 0 0 0 0 0 0 127 0" result="hardAlpha"/>
<feOffset dx="-2" dy="2"/>
<feGaussianBlur stdDeviation="1"/>
<feComposite in2="hardAlpha" operator="arithmetic" k2="-1" k3="1"/>
<feColorMatrix type="matrix" values="0 0 0 0 1 0 0 0 0 1 0 0 0 0 1 0 0 0 0.25 0"/>
<feBlend mode="normal" in2="effect2_innerShadow_23_935" result="effect3_innerShadow_23_935"/>
</filter>
<linearGradient id="paint0_linear_23_935" x1="651.92" y1="1109.14" x2="681.794" y2="582.188" gradientUnits="userSpaceOnUse">
<stop offset="1" stop-color="#16425B"/>
</linearGradient>
<linearGradient id="paint1_linear_23_935" x1="651.92" y1="1109.14" x2="681.794" y2="582.188" gradientUnits="userSpaceOnUse">
<stop offset="1" stop-color="#16425B"/>
</linearGradient>
<radialGradient id="paint2_radial_23_935" cx="0" cy="0" r="1" gradientUnits="userSpaceOnUse" gradientTransform="translate(476.104 42.1348) rotate(155.688) scale(249.475 307.741)">
<stop stop-color="#16425B" stop-opacity="0.898638"/>
<stop offset="1" stop-color="#16425B"/>
</radialGradient>
<linearGradient id="paint3_linear_23_935" x1="335.247" y1="131.799" x2="412.804" y2="235.512" gradientUnits="userSpaceOnUse">
<stop offset="1" stop-color="#16425B"/>
</linearGradient>
<linearGradient id="paint4_linear_23_935" x1="25.5796" y1="845.565" x2="304.733" y2="558.906" gradientUnits="userSpaceOnUse">
<stop offset="1" stop-color="#16425B"/>
</linearGradient>
<radialGradient id="paint5_radial_23_935" cx="0" cy="0" r="1" gradientUnits="userSpaceOnUse" gradientTransform="translate(1084.74 304.624) rotate(-178.234) scale(145.341 171.098)">
<stop stop-color="#16425B" stop-opacity="0.898638"/>
<stop offset="1" stop-color="#16425B"/>
</radialGradient>
</defs>
</svg>
