<svg width="32" height="32" viewBox="0 0 32 32" fill="none" xmlns="http://www.w3.org/2000/svg">
<path d="M17.336 10.676C21.5613 10.676 23.9573 13.472 24.3067 16.8493H24.4133C25.059 16.8485 25.6986 16.9748 26.2954 17.2211C26.8923 17.4674 27.4348 17.8289 27.8919 18.285C28.349 18.741 28.7118 19.2826 28.9596 19.8788C29.2074 20.4751 29.3353 21.1143 29.336 21.76C29.3351 22.4056 29.2071 23.0447 28.9592 23.6408C28.7114 24.2369 28.3485 24.7783 27.8914 25.2342C27.4343 25.6901 26.8919 26.0514 26.2951 26.2977C25.6983 26.5439 25.0589 26.6702 24.4133 26.6693H10.2587C9.61309 26.6702 8.97366 26.5439 8.37689 26.2977C7.78012 26.0514 7.23769 25.6901 6.78058 25.2342C6.32347 24.7783 5.96062 24.2369 5.71276 23.6408C5.4649 23.0447 5.33688 22.4056 5.336 21.76C5.3367 21.1143 5.46459 20.4751 5.71238 19.8788C5.96016 19.2826 6.32298 18.741 6.78011 18.285C7.23724 17.8289 7.77972 17.4674 8.37658 17.2211C8.97344 16.9748 9.61298 16.8485 10.2587 16.8493H10.3653C10.716 13.4493 13.1107 10.676 17.3347 10.676H17.336ZM17.336 12.6733C14.5747 12.6733 12.1667 14.8507 12.1667 17.8587C12.1667 18.3347 11.7413 18.7093 11.2547 18.7093H10.3347C8.65333 18.7093 7.28933 20.044 7.28933 21.6907C7.28933 23.3373 8.65333 24.672 10.3347 24.672H24.3387C26.0187 24.672 27.3827 23.3387 27.3827 21.6907C27.3827 20.044 26.02 18.7093 24.3387 18.7093H23.4173C22.9307 18.7093 22.5053 18.336 22.5053 17.8587C22.5053 14.812 20.0973 12.672 17.336 12.672V12.6733ZM5.824 16.216C5.91661 16.4394 5.92508 16.6889 5.84786 16.9181C5.77063 17.1473 5.61294 17.3408 5.404 17.4627L5.28267 17.5227L4.048 18.0347C3.81399 18.1313 3.55201 18.1357 3.31494 18.0467C3.07787 17.9578 2.88337 17.7822 2.77068 17.5555C2.65798 17.3288 2.6355 17.0677 2.70775 16.8251C2.78001 16.5824 2.94163 16.3762 3.16 16.248L3.28267 16.1867L4.51733 15.676C4.76222 15.5744 5.03744 15.5742 5.28247 15.6755C5.52749 15.7767 5.72228 15.9712 5.824 16.216V16.216ZM14.4733 9.772L14.244 9.84933C13.5505 10.0924 12.8951 10.4327 12.2973 10.86C11.6554 10.6515 10.9645 10.6476 10.3202 10.849C9.67595 11.0503 9.11019 11.4469 8.70121 11.9839C8.29222 12.5208 8.06022 13.1716 8.03732 13.8462C8.01441 14.5208 8.20172 15.1859 8.57333 15.7493C7.92349 15.9318 7.30814 16.2201 6.752 16.6027C6.14089 15.5523 5.91263 14.3226 6.10604 13.1229C6.29946 11.9232 6.90261 10.8276 7.81286 10.0225C8.7231 9.21741 9.8842 8.7526 11.0986 8.70717C12.3129 8.66174 13.5055 9.0385 14.4733 9.77333V9.772ZM3.92 9.81333L4.06133 9.86L5.296 10.372C5.52817 10.4693 5.71509 10.6506 5.81944 10.8797C5.92379 11.1088 5.9379 11.3688 5.85895 11.6079C5.78 11.8469 5.6138 12.0474 5.39353 12.1692C5.17326 12.2911 4.91513 12.3254 4.67067 12.2653L4.53333 12.2213L3.29867 11.7093C3.06712 11.6117 2.8808 11.4305 2.77679 11.2018C2.67278 10.973 2.65871 10.7135 2.73736 10.4748C2.81602 10.2362 2.98164 10.0359 3.20128 9.91381C3.42091 9.79173 3.67846 9.75681 3.92267 9.816L3.92 9.81333ZM9.00667 5.832L9.068 5.95333L9.57867 7.18933C9.67396 7.42314 9.67729 7.68434 9.58798 7.9205C9.49867 8.15666 9.32334 8.3503 9.09717 8.46253C8.87101 8.57477 8.61076 8.5973 8.36867 8.52561C8.12658 8.45391 7.92057 8.29329 7.792 8.076L7.73067 7.95467L7.22 6.71867C7.1247 6.48486 7.12138 6.22366 7.21069 5.9875C7.3 5.75134 7.47533 5.5577 7.7015 5.44546C7.92766 5.33323 8.18791 5.31069 8.43 5.38239C8.67209 5.45409 8.8781 5.6147 9.00667 5.832V5.832ZM14.812 5.40667C15.0334 5.49855 15.2144 5.66688 15.3221 5.88102C15.4297 6.09515 15.4569 6.34084 15.3987 6.57333L15.352 6.71333L14.8413 7.94933C14.744 8.1815 14.5627 8.36842 14.3336 8.47277C14.1045 8.57712 13.8445 8.59124 13.6055 8.51229C13.3664 8.43334 13.166 8.26713 13.0441 8.04686C12.9222 7.82659 12.8879 7.56846 12.948 7.324L12.9933 7.18267L13.5053 5.948C13.5556 5.82665 13.6292 5.71638 13.7221 5.6235C13.815 5.53062 13.9252 5.45694 14.0465 5.40667C14.1679 5.3564 14.2979 5.33053 14.4293 5.33053C14.5606 5.33053 14.6907 5.3564 14.812 5.40667V5.40667Z" fill="white"/>
</svg>
