<svg width="100" height="100" viewBox="0 0 100 100" fill="none" xmlns="http://www.w3.org/2000/svg">
<rect width="100" height="100" fill="transparent"/>
<path fill-rule="evenodd" clip-rule="evenodd" d="M87.5 37.33C87.4947 32.9794 85.7641 28.8086 82.6878 25.7322C79.6115 22.6559 75.4406 20.9253 71.09 20.92C70.3172 20.9178 69.5452 20.9713 68.78 21.08C66.6194 18.1269 63.7928 15.725 60.5297 14.0693C57.2666 12.4135 53.6591 11.5506 50 11.5506C46.3409 11.5506 42.7334 12.4135 39.4703 14.0693C36.2073 15.725 33.3807 18.1269 31.22 21.08C28.7403 20.7234 26.2119 20.9392 23.8285 21.711C21.4451 22.4828 19.2701 23.79 17.4701 25.5324C15.6702 27.2749 14.293 29.4063 13.4443 31.7634C12.5956 34.1205 12.2978 36.6406 12.5737 39.1305C12.8497 41.6205 13.6921 44.0142 15.0364 46.1282C16.3806 48.2422 18.191 50.0204 20.3289 51.3265C22.4667 52.6325 24.8752 53.4317 27.3697 53.6629C29.8642 53.894 32.3786 53.551 34.72 52.66C38.9447 56.3719 44.3762 58.4191 50 58.4191C55.6238 58.4191 61.0553 56.3719 65.28 52.66C67.7624 53.6048 70.4372 53.9321 73.0742 53.6138C75.7112 53.2955 78.2313 52.3411 80.4176 50.8327C82.6038 49.3244 84.3908 47.3073 85.6246 44.9551C86.8583 42.6029 87.5019 39.9861 87.5 37.33ZM64.36 46.9C62.6234 49.0342 60.433 50.7546 57.9482 51.9362C55.4634 53.1177 52.7465 53.7308 49.995 53.7308C47.2435 53.7308 44.5266 53.1177 42.0418 51.9362C39.557 50.7546 37.3666 49.0342 35.63 46.9C33.9662 48.0709 32.026 48.7881 30.0007 48.9809C27.9754 49.1737 25.9347 48.8356 24.0799 47.9997C22.225 47.1638 20.6199 45.8591 19.4227 44.2142C18.2256 42.5692 17.4776 40.6407 17.2526 38.6187C17.0276 36.5966 17.3333 34.5509 18.1396 32.683C18.9459 30.815 20.2249 29.1894 21.8506 27.9663C23.4764 26.7431 25.3928 25.9646 27.411 25.7075C29.4292 25.4504 31.4795 25.7235 33.36 26.5C34.9077 23.4142 37.2832 20.8197 40.2209 19.0066C43.1587 17.1934 46.5428 16.2332 49.995 16.2332C53.4472 16.2332 56.8314 17.1934 59.7691 19.0066C62.7068 20.8197 65.0823 23.4142 66.63 26.5C68.5123 25.7194 70.5657 25.443 72.5874 25.6982C74.6091 25.9533 76.5294 26.7312 78.1587 27.9551C79.788 29.179 81.0701 30.8065 81.8784 32.6771C82.6867 34.5477 82.9933 36.5968 82.7679 38.622C82.5426 40.6473 81.793 42.5788 80.5933 44.226C79.3936 45.8732 77.7851 47.1791 75.9266 48.0148C74.0681 48.8506 72.0238 49.1874 69.9954 48.9919C67.967 48.7963 66.0247 48.0754 64.36 46.9Z" fill="white"/>
<path fill-rule="evenodd" clip-rule="evenodd" d="M43.11 69.81C43.2309 69.7457 43.3372 69.6572 43.4225 69.5501C43.5078 69.443 43.5702 69.3196 43.6058 69.1874C43.6414 69.0552 43.6495 68.9171 43.6296 68.7817C43.6097 68.6462 43.5622 68.5163 43.49 68.4L42.32 66.4H44.66C44.9332 66.4 45.1952 66.2915 45.3883 66.0983C45.5815 65.9051 45.69 65.6432 45.69 65.37C45.69 65.0968 45.5815 64.8348 45.3883 64.6417C45.1952 64.4485 44.9332 64.34 44.66 64.34H42.32L43.49 62.34C43.5622 62.2236 43.6097 62.0937 43.6296 61.9583C43.6495 61.8228 43.6414 61.6848 43.6058 61.5526C43.5702 61.4204 43.5078 61.2969 43.4225 61.1898C43.3372 61.0827 43.2309 60.9943 43.11 60.93C42.9937 60.8578 42.8638 60.8103 42.7283 60.7904C42.5929 60.7704 42.4548 60.7785 42.3226 60.8142C42.1904 60.8498 42.0669 60.9122 41.9598 60.9975C41.8528 61.0828 41.7643 61.1891 41.7 61.31L40.54 63.31L39.37 61.31C39.2374 61.0726 39.0159 60.8976 38.7543 60.8236C38.4927 60.7495 38.2124 60.7824 37.975 60.915C37.7376 61.0476 37.5627 61.2691 37.4886 61.5307C37.4145 61.7923 37.4474 62.0726 37.58 62.31L38.75 64.31H36.41C36.1368 64.31 35.8748 64.4185 35.6817 64.6117C35.4885 64.8048 35.38 65.0668 35.38 65.34C35.38 65.6131 35.4885 65.8751 35.6817 66.0683C35.8748 66.2615 36.1368 66.37 36.41 66.37H38.75L37.58 68.37C37.4474 68.6074 37.4145 68.8877 37.4886 69.1493C37.5627 69.4109 37.7376 69.6324 37.975 69.765C38.2124 69.8976 38.4927 69.9305 38.7543 69.8564C39.0159 69.7823 39.2374 69.6074 39.37 69.37L40.54 67.37L41.7 69.37C41.7589 69.4959 41.8433 69.6081 41.948 69.6995C42.0527 69.791 42.1753 69.8596 42.308 69.901C42.4406 69.9424 42.5805 69.9557 42.7186 69.94C42.8567 69.9243 42.99 69.88 43.11 69.81Z" fill="white"/>
<path fill-rule="evenodd" clip-rule="evenodd" d="M35.2 75.56H32.86L34.03 73.56C34.1626 73.3226 34.1955 73.0423 34.1214 72.7807C34.0473 72.5191 33.8723 72.2976 33.635 72.165C33.3976 72.0324 33.1173 71.9995 32.8557 72.0736C32.5941 72.1476 32.3726 72.3226 32.24 72.56L31.07 74.56L29.9 72.56C29.8343 72.4431 29.7463 72.3403 29.6409 72.2575C29.5355 72.1746 29.4148 72.1133 29.2857 72.0771C29.1567 72.0409 29.0217 72.0305 28.8886 72.0464C28.7555 72.0623 28.6268 72.1043 28.51 72.17C28.3931 72.2356 28.2903 72.3237 28.2074 72.4291C28.1246 72.5345 28.0633 72.6551 28.0271 72.7842C27.9909 72.9133 27.9804 73.0482 27.9964 73.1813C28.0123 73.3144 28.0543 73.4431 28.12 73.56L29.29 75.56H27C26.7268 75.56 26.4648 75.6685 26.2717 75.8617C26.0785 76.0548 25.97 76.3168 25.97 76.59C25.97 76.8632 26.0785 77.1251 26.2717 77.3183C26.4648 77.5115 26.7268 77.62 27 77.62H29.34L28.17 79.62C28.0374 79.856 28.004 80.1351 28.0771 80.3958C28.1502 80.6564 28.3239 80.8774 28.56 81.01C28.796 81.1426 29.0751 81.176 29.3357 81.1029C29.5964 81.0297 29.8174 80.856 29.95 80.62L31.12 78.62L32.29 80.62C32.4226 80.8574 32.6441 81.0323 32.9057 81.1064C33.1673 81.1805 33.4476 81.1476 33.685 81.015C33.9223 80.8824 34.0973 80.6609 34.1714 80.3993C34.2455 80.1377 34.2126 79.8574 34.08 79.62L32.91 77.62H35.2C35.4731 77.62 35.7351 77.5115 35.9283 77.3183C36.1215 77.1251 36.23 76.8632 36.23 76.59C36.23 76.3168 36.1215 76.0548 35.9283 75.8617C35.7351 75.6685 35.4731 75.56 35.2 75.56Z" fill="white"/>
<path fill-rule="evenodd" clip-rule="evenodd" d="M75.07 75.56H72.73L73.9 73.56C74.0326 73.3226 74.0655 73.0423 73.9915 72.7807C73.9174 72.5191 73.7424 72.2976 73.505 72.165C73.2677 72.0324 72.9873 71.9995 72.7257 72.0736C72.4641 72.1476 72.2426 72.3226 72.11 72.56L70.94 74.56L69.78 72.56C69.6474 72.3226 69.426 72.1476 69.1643 72.0736C68.9027 71.9995 68.6224 72.0324 68.385 72.165C68.1477 72.2976 67.9727 72.5191 67.8986 72.7807C67.8245 73.0423 67.8574 73.3226 67.99 73.56L69.16 75.56H66.82C66.5469 75.56 66.2849 75.6685 66.0917 75.8617C65.8986 76.0548 65.79 76.3168 65.79 76.59C65.79 76.8632 65.8986 77.1251 66.0917 77.3183C66.2849 77.5115 66.5469 77.62 66.82 77.62H69.16L67.99 79.62C67.9195 79.7359 67.8733 79.865 67.8543 79.9994C67.8353 80.1338 67.8438 80.2706 67.8793 80.4016C67.9149 80.5326 67.9767 80.655 68.0611 80.7613C68.1454 80.8676 68.2506 80.9556 68.37 81.02C68.4858 81.0925 68.6151 81.1406 68.7501 81.1613C68.8851 81.1819 69.023 81.1747 69.1551 81.14C69.2872 81.1053 69.4108 81.044 69.5183 80.9597C69.6258 80.8754 69.7149 80.77 69.78 80.65L70.94 78.65L72.11 80.65C72.1752 80.77 72.2643 80.8754 72.3718 80.9597C72.4793 81.044 72.6029 81.1053 72.735 81.14C72.8671 81.1747 73.0049 81.1819 73.1399 81.1613C73.275 81.1406 73.4043 81.0925 73.52 81.02C73.6395 80.9556 73.7446 80.8676 73.829 80.7613C73.9134 80.655 73.9752 80.5326 74.0108 80.4016C74.0463 80.2706 74.0548 80.1338 74.0358 79.9994C74.0168 79.865 73.9706 79.7359 73.9 79.62L72.73 77.62H75.07C75.3432 77.62 75.6052 77.5115 75.7984 77.3183C75.9915 77.1251 76.1 76.8632 76.1 76.59C76.1 76.3168 75.9915 76.0548 75.7984 75.8617C75.6052 75.6685 75.3432 75.56 75.07 75.56Z" fill="white"/>
<path fill-rule="evenodd" clip-rule="evenodd" d="M63.58 64.32H61.25L62.42 62.32C62.4857 62.2025 62.5275 62.0731 62.5432 61.9394C62.5589 61.8057 62.5481 61.6702 62.5114 61.5407C62.4747 61.4111 62.4129 61.2901 62.3294 61.1845C62.246 61.0788 62.1425 60.9907 62.025 60.925C61.9075 60.8593 61.7781 60.8175 61.6444 60.8018C61.5107 60.7861 61.3752 60.7969 61.2457 60.8336C61.1162 60.8703 60.9951 60.9321 60.8895 61.0156C60.7838 61.099 60.6957 61.2025 60.63 61.32L59.46 63.32L58.29 61.32C58.2243 61.2031 58.1363 61.1003 58.0309 61.0175C57.9255 60.9346 57.8048 60.8733 57.6758 60.8371C57.5467 60.8009 57.4118 60.7905 57.2786 60.8064C57.1455 60.8223 57.0169 60.8643 56.9 60.93C56.7831 60.9957 56.6803 61.0837 56.5975 61.1891C56.5146 61.2945 56.4533 61.4152 56.4171 61.5442C56.3809 61.6733 56.3705 61.8082 56.3864 61.9413C56.4023 62.0745 56.4443 62.2031 56.51 62.32L57.68 64.32H55.34C55.0668 64.32 54.8048 64.4285 54.6117 64.6217C54.4185 64.8148 54.31 65.0768 54.31 65.35C54.31 65.6232 54.4185 65.8852 54.6117 66.0783C54.8048 66.2715 55.0668 66.38 55.34 66.38H57.68L56.51 68.38C56.4443 68.4969 56.4023 68.6255 56.3864 68.7586C56.3705 68.8918 56.3809 69.0267 56.4171 69.1558C56.4533 69.2848 56.5146 69.4055 56.5975 69.5109C56.6803 69.6163 56.7831 69.7043 56.9 69.77C57.0169 69.8357 57.1455 69.8777 57.2786 69.8936C57.4118 69.9095 57.5467 69.8991 57.6758 69.8629C57.8048 69.8267 57.9255 69.7654 58.0309 69.6825C58.1363 69.5997 58.2243 69.4969 58.29 69.38L59.46 67.38L60.63 69.38C60.6957 69.4975 60.7838 69.601 60.8895 69.6844C60.9951 69.7679 61.1162 69.8297 61.2457 69.8664C61.3752 69.9031 61.5107 69.9139 61.6444 69.8982C61.7781 69.8825 61.9075 69.8407 62.025 69.775C62.1425 69.7093 62.246 69.6212 62.3294 69.5155C62.4129 69.4099 62.4747 69.2888 62.5114 69.1593C62.5481 69.0298 62.5589 68.8943 62.5432 68.7606C62.5275 68.6268 62.4857 68.4975 62.42 68.38L61.25 66.38H63.58C63.8532 66.38 64.1152 66.2715 64.3083 66.0783C64.5015 65.8852 64.61 65.6232 64.61 65.35C64.61 65.0768 64.5015 64.8148 64.3083 64.6217C64.1152 64.4285 63.8532 64.32 63.58 64.32Z" fill="white"/>
<path fill-rule="evenodd" clip-rule="evenodd" d="M83.13 61.94H78.13L80.63 57.6C80.737 57.3391 80.7462 57.0483 80.6558 56.7812C80.5655 56.514 80.3817 56.2885 80.1383 56.1461C79.8949 56.0037 79.6082 55.954 79.3311 56.0062C79.0539 56.0583 78.8049 56.2089 78.63 56.43L76.13 60.76L73.63 56.43C73.5664 56.2751 73.4704 56.1356 73.3483 56.021C73.2262 55.9064 73.0809 55.8193 72.9223 55.7657C72.7637 55.7121 72.5954 55.6931 72.4288 55.7101C72.2622 55.7271 72.1012 55.7796 71.9567 55.8642C71.8122 55.9487 71.6875 56.0633 71.591 56.2002C71.4946 56.3371 71.4287 56.4931 71.3977 56.6576C71.3667 56.8222 71.3714 56.9915 71.4115 57.154C71.4516 57.3166 71.5261 57.4687 71.63 57.6L74.13 61.94H69.13C68.8197 61.94 68.5221 62.0633 68.3027 62.2827C68.0832 62.5021 67.96 62.7997 67.96 63.11C67.96 63.4203 68.0832 63.7179 68.3027 63.9373C68.5221 64.1567 68.8197 64.28 69.13 64.28H74.13L71.63 68.61C71.5229 68.8709 71.5138 69.1617 71.6041 69.4289C71.6944 69.696 71.8782 69.9215 72.1217 70.0639C72.3651 70.2063 72.6517 70.256 72.9289 70.2038C73.206 70.1517 73.455 70.0012 73.63 69.78L76.13 65.45L78.63 69.78C78.6935 69.9349 78.7896 70.0744 78.9117 70.189C79.0337 70.3036 79.179 70.3907 79.3376 70.4443C79.4962 70.498 79.6645 70.5169 79.8311 70.5C79.9977 70.483 80.1587 70.4304 80.3032 70.3459C80.4477 70.2613 80.5724 70.1467 80.6689 70.0098C80.7653 69.873 80.8313 69.717 80.8622 69.5524C80.8932 69.3879 80.8885 69.2186 80.8484 69.056C80.8084 68.8934 80.7339 68.7413 80.63 68.61L78.13 64.28H83.13C83.4403 64.28 83.7379 64.1567 83.9573 63.9373C84.1767 63.7179 84.3 63.4203 84.3 63.11C84.3 62.7997 84.1767 62.5021 83.9573 62.2827C83.7379 62.0633 83.4403 61.94 83.13 61.94Z" fill="white"/>
<path fill-rule="evenodd" clip-rule="evenodd" d="M26.14 68.61L23.64 64.28H28.64C28.9503 64.28 29.2479 64.1567 29.4673 63.9373C29.6867 63.7179 29.81 63.4203 29.81 63.11C29.81 62.7997 29.6867 62.5021 29.4673 62.2827C29.2479 62.0633 28.9503 61.94 28.64 61.94H23.64L26.14 57.6C26.247 57.3391 26.2562 57.0483 26.1658 56.7811C26.0755 56.514 25.8917 56.2885 25.6483 56.1461C25.4049 56.0037 25.1182 55.954 24.8411 56.0062C24.5639 56.0583 24.315 56.2088 24.14 56.43L21.64 60.76L19.14 56.43C18.965 56.2088 18.716 56.0583 18.4389 56.0062C18.1617 55.954 17.8751 56.0037 17.6317 56.1461C17.3882 56.2885 17.2044 56.514 17.1141 56.7811C17.0238 57.0483 17.0329 57.3391 17.14 57.6L19.64 61.94H14.64C14.3297 61.94 14.0321 62.0633 13.8127 62.2827C13.5932 62.5021 13.47 62.7997 13.47 63.11C13.47 63.4203 13.5932 63.7179 13.8127 63.9373C14.0321 64.1567 14.3297 64.28 14.64 64.28H19.64L17.14 68.61C17.0361 68.7413 16.9616 68.8934 16.9215 69.056C16.8814 69.2185 16.8767 69.3878 16.9077 69.5524C16.9387 69.717 17.0046 69.8729 17.101 70.0098C17.1975 70.1467 17.3222 70.2613 17.4667 70.3459C17.6112 70.4304 17.7722 70.4829 17.9388 70.4999C18.1054 70.5169 18.2737 70.4979 18.4323 70.4443C18.5909 70.3907 18.7362 70.3036 18.8583 70.189C18.9804 70.0744 19.0764 69.9349 19.14 69.78L21.64 65.45L24.14 69.78C24.2035 69.9349 24.2996 70.0744 24.4217 70.189C24.5437 70.3036 24.689 70.3907 24.8476 70.4443C25.0062 70.4979 25.1745 70.5169 25.3411 70.4999C25.5077 70.4829 25.6687 70.4304 25.8132 70.3459C25.9578 70.2613 26.0825 70.1467 26.1789 70.0098C26.2753 69.8729 26.3413 69.717 26.3722 69.5524C26.4032 69.3878 26.3985 69.2185 26.3584 69.056C26.3184 68.8934 26.2439 68.7413 26.14 68.61Z" fill="white"/>
<path fill-rule="evenodd" clip-rule="evenodd" d="M57 80H52L54.5 75.67C54.607 75.4091 54.6162 75.1183 54.5259 74.8512C54.4355 74.584 54.2517 74.3585 54.0083 74.2161C53.7649 74.0737 53.4783 74.024 53.2011 74.0762C52.924 74.1283 52.675 74.2788 52.5 74.5L50 78.85L47.5 74.52C47.325 74.2988 47.0761 74.1483 46.7989 74.0962C46.5218 74.044 46.2351 74.0937 45.9917 74.2361C45.7483 74.3785 45.5645 74.604 45.4741 74.8712C45.3838 75.1383 45.393 75.4291 45.5 75.69L48 80H43C42.7071 80.0271 42.4348 80.1625 42.2366 80.3799C42.0384 80.5973 41.9285 80.8808 41.9285 81.175C41.9285 81.4692 42.0384 81.7527 42.2366 81.9701C42.4348 82.1875 42.7071 82.3229 43 82.35H48L45.5 86.68C45.3961 86.8113 45.3216 86.9634 45.2815 87.126C45.2415 87.2886 45.2368 87.4578 45.2677 87.6224C45.2987 87.787 45.3646 87.9429 45.4611 88.0798C45.5575 88.2167 45.6822 88.3313 45.8268 88.4159C45.9713 88.5004 46.1323 88.553 46.2989 88.5699C46.4655 88.5869 46.6337 88.568 46.7924 88.5143C46.951 88.4607 47.0962 88.3736 47.2183 88.259C47.3404 88.1444 47.4365 88.0049 47.5 87.85L50 83.54L52.5 87.87C52.675 88.0912 52.924 88.2417 53.2011 88.2938C53.4783 88.346 53.7649 88.2963 54.0083 88.1539C54.2517 88.0115 54.4355 87.786 54.5259 87.5188C54.6162 87.2517 54.607 86.9609 54.5 86.7L52 82.37H57C57.3143 82.37 57.6157 82.2451 57.8379 82.0229C58.0602 81.8007 58.185 81.4993 58.185 81.185C58.185 80.8707 58.0602 80.5693 57.8379 80.3471C57.6157 80.1248 57.3143 80 57 80Z" fill="white"/>
</svg>
